<mxfile host="app.diagrams.net" modified="2023-10-13T13:23:33.815Z" agent="Mozilla/5.0 (Windows NT 10.0; Win64; x64) AppleWebKit/537.36 (KHTML, like Gecko) Chrome/117.0.0.0 Safari/537.36 Edg/117.0.2045.60" etag="i7_hCYQiTZmqaLVOGEGk" version="22.0.4" type="github">
  <diagram name="第 1 页" id="AXnJaw9f5F4j0GoQM91S">
    <mxGraphModel dx="1022" dy="686" grid="1" gridSize="10" guides="1" tooltips="1" connect="1" arrows="1" fold="1" page="1" pageScale="1" pageWidth="827" pageHeight="1169" math="0" shadow="0">
      <root>
        <mxCell id="0" />
        <mxCell id="1" parent="0" />
        <mxCell id="t6iJehXlqV-rxjUKu6CW-1" value="" style="ellipse;html=1;shape=startState;fillColor=#000000;strokeColor=#ff0000;fontSize=12;fontFamily=宋体;" parent="1" vertex="1">
          <mxGeometry x="70" y="125" width="30" height="30" as="geometry" />
        </mxCell>
        <mxCell id="t6iJehXlqV-rxjUKu6CW-2" value="" style="edgeStyle=orthogonalEdgeStyle;html=1;verticalAlign=bottom;endArrow=open;endSize=8;strokeColor=#ff0000;rounded=0;entryX=0;entryY=0.5;entryDx=0;entryDy=0;exitX=0.858;exitY=0.514;exitDx=0;exitDy=0;exitPerimeter=0;fontSize=12;fontFamily=宋体;" parent="1" source="t6iJehXlqV-rxjUKu6CW-1" target="t6iJehXlqV-rxjUKu6CW-3" edge="1">
          <mxGeometry relative="1" as="geometry">
            <mxPoint x="195" y="120" as="targetPoint" />
            <mxPoint y="140" as="sourcePoint" />
            <Array as="points" />
          </mxGeometry>
        </mxCell>
        <mxCell id="t6iJehXlqV-rxjUKu6CW-3" value="输入命令行" style="rounded=1;whiteSpace=wrap;html=1;arcSize=40;fontColor=#000000;fillColor=#ffffc0;strokeColor=#ff0000;fontSize=12;fontFamily=宋体;" parent="1" vertex="1">
          <mxGeometry x="135" y="120" width="175" height="40" as="geometry" />
        </mxCell>
        <mxCell id="t6iJehXlqV-rxjUKu6CW-5" value="修改或者查询数据库" style="rounded=1;whiteSpace=wrap;html=1;arcSize=40;fontColor=#000000;fillColor=#ffffc0;strokeColor=#ff0000;fontSize=12;fontFamily=宋体;" parent="1" vertex="1">
          <mxGeometry x="144.99" y="319" width="155.02" height="41" as="geometry" />
        </mxCell>
        <mxCell id="t6iJehXlqV-rxjUKu6CW-7" value="" style="rhombus;whiteSpace=wrap;html=1;fontColor=#000000;fillColor=#ffffc0;strokeColor=#ff0000;fontSize=12;fontFamily=宋体;" parent="1" vertex="1">
          <mxGeometry x="182.5" y="260" width="80" height="40" as="geometry" />
        </mxCell>
        <mxCell id="t6iJehXlqV-rxjUKu6CW-11" value="" style="ellipse;html=1;shape=endState;fillColor=#000000;strokeColor=#ff0000;fontSize=12;fontFamily=宋体;" parent="1" vertex="1">
          <mxGeometry x="207.5" y="390" width="30" height="30" as="geometry" />
        </mxCell>
        <mxCell id="t6iJehXlqV-rxjUKu6CW-13" value="" style="edgeStyle=orthogonalEdgeStyle;html=1;verticalAlign=bottom;endArrow=open;endSize=8;strokeColor=#ff0000;rounded=0;exitX=1;exitY=0.5;exitDx=0;exitDy=0;fontSize=12;fontFamily=宋体;" parent="1" source="t6iJehXlqV-rxjUKu6CW-7" edge="1">
          <mxGeometry relative="1" as="geometry">
            <mxPoint x="400" y="320" as="targetPoint" />
            <mxPoint x="350" y="300" as="sourcePoint" />
            <Array as="points">
              <mxPoint x="400" y="280" />
            </Array>
          </mxGeometry>
        </mxCell>
        <mxCell id="t6iJehXlqV-rxjUKu6CW-14" value="No" style="edgeLabel;html=1;align=center;verticalAlign=middle;resizable=0;points=[];fontSize=12;fontFamily=宋体;" parent="1" vertex="1" connectable="0">
          <mxGeometry x="330" y="260" as="geometry">
            <mxPoint x="-12" y="4" as="offset" />
          </mxGeometry>
        </mxCell>
        <mxCell id="t6iJehXlqV-rxjUKu6CW-36" value="解析命令行的参数" style="rounded=1;whiteSpace=wrap;html=1;arcSize=40;fontColor=#000000;fillColor=#ffffc0;strokeColor=#ff0000;fontSize=12;fontFamily=宋体;" parent="1" vertex="1">
          <mxGeometry x="135" y="190" width="175" height="40" as="geometry" />
        </mxCell>
        <mxCell id="t6iJehXlqV-rxjUKu6CW-37" value="" style="edgeStyle=orthogonalEdgeStyle;html=1;verticalAlign=bottom;endArrow=open;endSize=8;strokeColor=#ff0000;rounded=0;fontSize=12;fontFamily=宋体;" parent="1" edge="1">
          <mxGeometry relative="1" as="geometry">
            <mxPoint x="222" y="190" as="targetPoint" />
            <mxPoint x="222.07999999999998" y="160" as="sourcePoint" />
            <Array as="points">
              <mxPoint x="222.07999999999998" y="160" />
            </Array>
          </mxGeometry>
        </mxCell>
        <mxCell id="t6iJehXlqV-rxjUKu6CW-40" value="判断参数是否有效" style="edgeLabel;html=1;align=center;verticalAlign=middle;resizable=0;points=[];fontSize=12;fontFamily=宋体;" parent="1" vertex="1" connectable="0">
          <mxGeometry x="135" y="250" as="geometry">
            <mxPoint x="-1" y="2" as="offset" />
          </mxGeometry>
        </mxCell>
        <mxCell id="t6iJehXlqV-rxjUKu6CW-42" value="错误提示" style="rounded=1;whiteSpace=wrap;html=1;arcSize=40;fontColor=#000000;fillColor=#ffffc0;strokeColor=#ff0000;fontSize=12;fontFamily=宋体;" parent="1" vertex="1">
          <mxGeometry x="320" y="319" width="155.02" height="41" as="geometry" />
        </mxCell>
        <mxCell id="t6iJehXlqV-rxjUKu6CW-46" value="" style="edgeStyle=orthogonalEdgeStyle;html=1;verticalAlign=bottom;endArrow=open;endSize=8;strokeColor=#ff0000;rounded=0;fontSize=12;fontFamily=宋体;" parent="1" edge="1">
          <mxGeometry relative="1" as="geometry">
            <mxPoint x="222.26000000000002" y="260" as="targetPoint" />
            <mxPoint x="222.34" y="230" as="sourcePoint" />
            <Array as="points">
              <mxPoint x="222.34" y="230" />
            </Array>
          </mxGeometry>
        </mxCell>
        <mxCell id="t6iJehXlqV-rxjUKu6CW-47" value="" style="edgeStyle=orthogonalEdgeStyle;html=1;verticalAlign=bottom;endArrow=open;endSize=8;strokeColor=#ff0000;rounded=0;fontSize=12;fontFamily=宋体;" parent="1" edge="1">
          <mxGeometry relative="1" as="geometry">
            <mxPoint x="222" y="320" as="targetPoint" />
            <mxPoint x="222.34" y="300" as="sourcePoint" />
            <Array as="points">
              <mxPoint x="222.34" y="300" />
            </Array>
          </mxGeometry>
        </mxCell>
        <mxCell id="t6iJehXlqV-rxjUKu6CW-48" value="" style="edgeStyle=orthogonalEdgeStyle;html=1;verticalAlign=bottom;endArrow=open;endSize=8;strokeColor=#ff0000;rounded=0;fontSize=12;entryX=0.5;entryY=0;entryDx=0;entryDy=0;fontFamily=宋体;" parent="1" target="t6iJehXlqV-rxjUKu6CW-11" edge="1">
          <mxGeometry relative="1" as="geometry">
            <mxPoint x="222.26" y="380" as="targetPoint" />
            <mxPoint x="222.6" y="360" as="sourcePoint" />
            <Array as="points" />
          </mxGeometry>
        </mxCell>
        <mxCell id="t6iJehXlqV-rxjUKu6CW-49" value="" style="edgeStyle=orthogonalEdgeStyle;html=1;verticalAlign=bottom;endArrow=open;endSize=8;strokeColor=#ff0000;rounded=0;exitX=0.5;exitY=1;exitDx=0;exitDy=0;fontSize=12;entryX=1;entryY=0.5;entryDx=0;entryDy=0;fontFamily=宋体;" parent="1" source="t6iJehXlqV-rxjUKu6CW-42" target="t6iJehXlqV-rxjUKu6CW-11" edge="1">
          <mxGeometry relative="1" as="geometry">
            <mxPoint x="517" y="450" as="targetPoint" />
            <mxPoint x="380" y="410" as="sourcePoint" />
            <Array as="points">
              <mxPoint x="400" y="360" />
              <mxPoint x="400" y="405" />
            </Array>
          </mxGeometry>
        </mxCell>
        <mxCell id="t6iJehXlqV-rxjUKu6CW-51" value="Yes" style="edgeLabel;html=1;align=center;verticalAlign=middle;resizable=0;points=[];fontSize=12;fontFamily=宋体;" parent="1" vertex="1" connectable="0">
          <mxGeometry x="190" y="300" as="geometry">
            <mxPoint x="-12" y="4" as="offset" />
          </mxGeometry>
        </mxCell>
      </root>
    </mxGraphModel>
  </diagram>
</mxfile>
